<svg xmlns="http://www.w3.org/2000/svg" xmlns:xlink="http://www.w3.org/1999/xlink" viewBox="0 0 2911.54 2911.54"><defs><style>.cls-1{fill:url(#Gradiente_sem_nome_67);}</style><linearGradient id="Gradiente_sem_nome_67" x1="2629.07" y1="2943.35" x2="552.38" y2="310.4" gradientUnits="userSpaceOnUse"><stop offset="0" stop-color="#b7ff7f"/><stop offset="0.95" stop-color="#17ff39"/><stop offset="0.96" stop-color="#15ff38"/><stop offset="1" stop-color="#8cc63f"/></linearGradient></defs><g id="Camada_2" data-name="Camada 2"><g id="Camada_1-2" data-name="Camada 1"><circle class="cls-1" cx="1455.77" cy="1455.77" r="1455.77"/><path d="M1214.55,1090.75c-4.1,156,5.65,309.6,60.14,458.45,81.12,221.6,278.56,365.16,515.07,377,155.55,7.78,301.66-13.57,432.1-105,11.71-8.21,27.21-22.6,40.34-6.26,12.29,15.31.33,33.54-6.56,48.45-112.12,242.58-294.54,396.45-561.46,443.2-502.07,87.94-946.71-230.11-1045.87-745.75-29.26-152.18-19.8-305.3-21.81-458.28-.82-63.22-.61-126.46,0-189.68C628.2,733,754.16,594.42,918.86,590.53c161.12-3.81,288.32,129,295.3,310.56C1216.59,964.22,1214.55,1027.53,1214.55,1090.75Z"/><path d="M2284.77,1056.88c0,55.46,1.79,111-.34,166.35-6.21,161.75-138,282.6-303.36,279.88-160.69-2.65-285.6-128.33-286.56-289.26-.65-107.08-1.33-214.19,0-321.26,2.17-168.23,129.72-300.12,290.16-302.06,159.24-1.91,292.6,128.15,299.67,294.26C2286.82,942.06,2284.78,999.51,2284.77,1056.88Z"/></g></g></svg>